HIERARCHY
ROOT Hips
{
	OFFSET 0.00000 0.00000 0.00000
	CHANNELS 6 Xposition Yposition Zposition Zrotation Yrotation Xrotation 
	JOINT LHipJoint
	{
		OFFSET 0 0 0
		CHANNELS 3 Zrotation Yrotation Xrotation
		JOINT LeftHip
		{
			OFFSET 1.36337 -1.57426 1.11036
			CHANNELS 3 Zrotation Yrotation Xrotation
			JOINT LeftKnee
			{
				OFFSET 2.38468 -6.55187 0.00000
				CHANNELS 3 Zrotation Yrotation Xrotation
				JOINT LeftAnkle
				{
					OFFSET 2.37166 -6.51609 0.00000
					CHANNELS 3 Zrotation Yrotation Xrotation
					JOINT LeftToe
					{
						OFFSET 0.29078 -0.79891 2.01393
						CHANNELS 3 Zrotation Yrotation Xrotation
						End Site
						{
							OFFSET 0.00000 -0.00000 1.07924
						}
					}
				}
			}
		}
	}
	JOINT RHipJoint
	{
		OFFSET 0 0 0
		CHANNELS 3 Zrotation Yrotation Xrotation
		JOINT RightHip
		{
			OFFSET -1.36349 -1.57426 1.11036
			CHANNELS 3 Zrotation Yrotation Xrotation
			JOINT RightKnee
			{
				OFFSET -2.29562 -6.30717 0.00000
				CHANNELS 3 Zrotation Yrotation Xrotation
				JOINT RightAnkle
				{
					OFFSET -2.40985 -6.62100 0.00000
					CHANNELS 3 Zrotation Yrotation Xrotation
					JOINT RightToe
					{
						OFFSET -0.23197 -0.63733 1.92232
						CHANNELS 3 Zrotation Yrotation Xrotation
						End Site
						{
							OFFSET -0.00000 -0.00000 1.01562
						}
					}
				}
			}
		}
	}
	JOINT lowerback
	{
		OFFSET 0 0 0
		CHANNELS 3 Zrotation Yrotation Xrotation
		JOINT Chest
		{
			OFFSET -0.08565 2.03602 -0.24562
			CHANNELS 3 Zrotation Yrotation Xrotation
			JOINT Chest2
			{
				OFFSET -0.00036 2.05693 0.00216
				CHANNELS 3 Zrotation Yrotation Xrotation
				JOINT lowerneck
				{
					OFFSET 0 0 0
					CHANNELS 3 Zrotation Yrotation Xrotation
					JOINT Neck
					{
						OFFSET -0.03664 1.69515 0.31789
						CHANNELS 3 Zrotation Yrotation Xrotation
						JOINT Head
						{
							OFFSET 0.00932 1.70181 -0.46013
							CHANNELS 3 Zrotation Yrotation Xrotation
							End Site
							{
								OFFSET 0.01243 1.77620 -0.19377
							}
						}
					}
				}
				JOINT LeftCollar
				{
					OFFSET 0 0 0
					CHANNELS 3 Zrotation Yrotation Xrotation
					JOINT LeftShoulder
					{
						OFFSET 3.74344 0.81315 -0.36647
CHANNELS 3 Zrotation Xrotation Yrotation
						JOINT LeftElbow
						{
OFFSET 0 -4.971850 -0.000000
CHANNELS 3 Zrotation Xrotation Yrotation
							JOINT LeftWrist
							{
OFFSET 0 -3.358110 0.000000
CHANNELS 3 Zrotation Xrotation Yrotation
								JOINT lhand
								{
									OFFSET 0 0 0
CHANNELS 3 Zrotation Xrotation Yrotation
									JOINT LFingers
									{
OFFSET 0 -0.622780 0.000000
CHANNELS 3 Zrotation Xrotation Yrotation
										End Site
										{
OFFSET 0 -0.502100 0.000000
										}
									}
								}
								JOINT LThumb
								{
OFFSET 0 0.000000 0.000000
CHANNELS 3 Zrotation Xrotation Yrotation
									End Site
									{
OFFSET 0 -0.509760 0.509760
									}
								}
							}
						}
					}
				}
				JOINT RightCollar
				{
					OFFSET 0 0 0
					CHANNELS 3 Zrotation Yrotation Xrotation
					JOINT RightShoulder
					{
						OFFSET -3.75385 0.50666 -0.06525
CHANNELS 3 Zrotation Xrotation Yrotation
						JOINT RightElbow
						{
OFFSET 0 -4.964930 -0.000000
CHANNELS 3 Zrotation Xrotation Yrotation
							JOINT RightWrist
							{
OFFSET 0 -3.349290 0.000000
CHANNELS 3 Zrotation Xrotation Yrotation
								JOINT rhand
								{
									OFFSET 0 0 0
CHANNELS 3 Zrotation Xrotation Yrotation
									JOINT RFingers
									{
OFFSET 0 -0.638040 0.000000
CHANNELS 3 Zrotation Xrotation Yrotation
										End Site
										{
OFFSET 0 -0.514410 0.000000
										}
									}
								}
								JOINT RThumb
								{
OFFSET 0 0.000000 0.000000
CHANNELS 3 Zrotation Xrotation Yrotation
									End Site
									{
OFFSET 0 -0.522260 0.522260
									}
								}
							}
						}
					}
				}
			}
		}
	}
}
MOTION
Frames: 10
Frame Time: 0.008333333333333333
-8.579200 1.464700 1.342300 41.971600 84.201800 139.913000 0.000000 0.000000 0.000000 -12.878400 16.857200 -28.256200 2.590500 10.000600 28.978800 -0.597900 24.580900 -30.799900 1.661200 8.121600 23.083900 0.000000 0.000000 0.000000 12.768700 -7.183500 -13.014400 -0.606600 -4.985200 13.866200 -6.089000 -25.041000 -58.165800 -4.032700 -12.203800 36.456800 0.030400 0.932000 -16.526600 -1.956600 1.475000 0.857700 -1.774200 0.782900 10.302000 12.638200 17.422700 -14.975900 -20.867600 25.776800 17.181600 -4.860700 10.635800 12.857300 0.000000 0.000000 0.000000 102.245600 -28.106800 50.055900 131.783900 -52.250200 95.243500 21.516100 -38.768300 14.439400 0.000000 0.000000 0.000000 -7.125000 0.000000 0.000000 -4.060900 14.536300 -2.919100 0.000000 0.000000 0.000000 -95.009900 -10.937200 -46.484200 -143.703200 -45.716200 -104.265400 -22.492800 -21.678500 33.422500 0.000000 0.000000 0.000000 7.125000 0.000000 -0.000000 12.943600 65.077000 -6.332900
-8.564348 1.471434 1.343760 37.376556 83.552840 135.837180 0.000000 0.000000 0.000000 -13.957329 16.474494 -28.560717 2.522101 9.877998 28.582561 -0.628428 24.884743 -31.077022 1.618641 8.022030 22.780913 0.000000 0.000000 0.000000 11.922455 -7.364673 -14.036343 -0.663225 -5.208282 14.503595 -6.055238 -24.733224 -57.883713 -4.076582 -12.261583 36.663650 -0.742893 0.814486 -16.768920 -2.193079 1.505388 0.610984 -1.581104 0.766669 10.155234 12.253035 17.221645 -15.260083 -20.222519 25.414786 17.358171 -4.654619 10.480332 12.733216 0.000000 0.000000 0.000000 102.173904 -28.128712 49.935316 131.723017 -52.276481 95.195317 21.350551 -38.703106 14.465348 0.000000 0.000000 0.000000 -7.125000 0.000000 0.000000 -4.174782 14.527010 -3.002288 0.000000 0.000000 0.000000 -95.105274 -10.830485 -46.441209 -143.632188 -45.764434 -104.214526 -22.100252 -21.895056 33.698964 0.000000 0.000000 0.000000 7.125000 0.000000 0.000000 13.653566 65.236400 -6.736552
-8.558190 1.476114 1.343841 37.342524 83.394476 136.174008 0.000000 0.000000 0.000000 -14.232428 16.277857 -28.942702 2.505825 9.848526 28.487669 -0.554326 24.797236 -31.438155 1.633276 8.055949 22.884330 0.000000 0.000000 0.000000 11.840665 -7.494919 -14.593547 -0.674385 -5.251244 14.626679 -5.932109 -24.870347 -57.612896 -4.075419 -12.260059 36.658356 -0.852362 0.704252 -17.010367 -2.246923 1.392821 0.516275 -1.603912 0.710339 10.184093 12.708298 16.997971 -13.839466 -21.995890 24.909824 14.446905 -5.512817 10.464477 11.645932 0.000000 0.000000 0.000000 102.210817 -27.939775 49.959417 131.748979 -52.265269 95.215873 21.411165 -38.565084 14.448483 0.000000 0.000000 0.000000 -7.125000 0.000000 0.000000 -4.132734 14.538244 -2.970938 0.000000 0.000000 0.000000 -95.068153 -10.977298 -46.520594 -143.649709 -45.752582 -104.227092 -22.162595 -21.892694 33.640792 0.000000 0.000000 0.000000 7.125000 0.000000 0.000000 13.527997 65.197361 -6.661316
-8.553933 1.478275 1.345150 39.158060 83.478888 138.207269 0.000000 0.000000 0.000000 -14.098528 16.208158 -29.229549 2.502305 9.842093 28.466854 -0.466724 24.615627 -31.738775 1.633259 8.055893 22.884149 0.000000 0.000000 0.000000 12.067968 -7.334223 -14.785124 -0.674780 -5.252815 14.631074 -5.962628 -24.943097 -57.744715 -4.102598 -12.295642 36.786147 -0.628746 0.701309 -17.187158 -2.207919 1.342989 0.459021 -1.700070 0.697397 10.224064 12.691913 17.012355 -14.010690 -21.789539 24.922690 14.692012 -5.427710 10.453747 11.732256 0.000000 0.000000 0.000000 102.093523 -27.977379 49.793228 131.872513 -52.211754 95.313516 21.772563 -37.842328 14.047584 0.000000 0.000000 0.000000 -7.125000 0.000000 0.000000 -3.866789 14.924899 -2.747609 0.000000 0.000000 0.000000 -95.033320 -10.924781 -46.531894 -143.714274 -45.708700 -104.273373 -22.290862 -21.832372 33.697975 0.000000 0.000000 0.000000 7.125000 0.000000 0.000000 13.424043 65.289091 -6.637750
-8.551964 1.479992 1.350650 42.744717 83.761104 141.938705 0.000000 0.000000 0.000000 -13.650469 16.286958 -29.519503 2.500065 9.838045 28.453885 -0.505296 24.661735 -31.554134 1.424395 7.543005 21.336417 0.000000 0.000000 0.000000 12.592011 -6.847974 -14.760007 -0.673356 -5.247446 14.615619 -6.194733 -24.818644 -58.332971 -4.137032 -12.340579 36.947692 -0.234222 0.796344 -17.376985 -1.992393 1.367397 0.441118 -1.681846 0.722216 10.315994 12.126308 17.215673 -15.860901 -19.569966 25.429487 18.323740 -4.375680 10.421703 13.094890 0.000000 0.000000 0.000000 101.742700 -28.271359 49.653425 132.069970 -52.125706 95.469486 22.097371 -36.992191 13.304163 0.000000 0.000000 0.000000 -7.125000 0.000000 0.000000 -3.608749 15.682068 -2.504464 0.000000 0.000000 0.000000 -95.339643 -10.586624 -46.557312 -143.708141 -45.712877 -104.268969 -22.419345 -21.832940 33.843538 0.000000 0.000000 0.000000 7.125000 0.000000 0.000000 13.396922 65.467262 -6.679158
-8.547429 1.481889 1.353787 43.681835 83.737148 143.096102 0.000000 0.000000 0.000000 -13.694889 16.242737 -29.794680 2.488173 9.816334 28.384032 -0.567669 24.797528 -31.349803 1.256912 7.107154 20.033320 0.000000 0.000000 0.000000 12.669981 -6.571713 -14.904763 -0.674692 -5.252470 14.630113 -6.349675 -24.734463 -58.722862 -4.169410 -12.382554 37.099014 -0.318343 0.706035 -17.557617 -1.850535 1.251814 0.440505 -1.507990 0.657964 10.408911 11.835457 17.381293 -16.661228 -18.722606 25.734115 19.628264 -3.921529 10.454840 13.620401 0.000000 0.000000 0.000000 101.549633 -28.176614 49.792769 132.109673 -52.108411 95.500779 22.113494 -36.952004 13.207644 0.000000 0.000000 0.000000 -7.125000 0.000000 0.000000 -3.593055 15.783154 -2.485280 0.000000 0.000000 0.000000 -95.728387 -10.652805 -46.686386 -143.619648 -45.773027 -104.205493 -22.507681 -21.811366 33.871959 0.000000 0.000000 0.000000 7.125000 0.000000 0.000000 13.315271 65.520041 -6.654090
-8.537432 1.485222 1.355668 40.736751 83.327560 140.467304 0.000000 0.000000 0.000000 -14.359454 15.942800 -30.012825 2.472341 9.787496 28.291292 -0.597319 24.955337 -31.400533 1.235155 7.047694 19.856625 0.000000 0.000000 0.000000 12.109053 -6.409721 -15.195681 -0.676208 -5.258128 14.646233 -6.487902 -24.550366 -59.005987 -4.300154 -12.549454 37.704625 -0.908927 0.444418 -17.666295 -1.995644 1.046930 0.343981 -1.382987 0.535676 10.350705 12.063277 17.634176 -16.894367 -18.606344 26.025652 19.813137 -3.816677 10.570069 13.806040 0.000000 0.000000 0.000000 101.680871 -27.796045 50.120955 131.994177 -52.158821 95.409675 21.045355 -38.212852 14.451141 0.000000 0.000000 0.000000 -7.125000 0.000000 0.000000 -4.380722 14.576788 -3.150570 0.000000 0.000000 0.000000 -95.662112 -11.140338 -46.740145 -143.626444 -45.768396 -104.210387 -22.440542 -21.786329 33.893397 0.000000 0.000000 0.000000 7.125000 0.000000 0.000000 13.415395 65.521794 -6.705485
-8.533887 1.491210 1.360345 41.542038 83.369351 141.403234 0.000000 0.000000 0.000000 -14.218793 15.663509 -30.008378 2.448170 9.742990 28.148383 -0.586618 25.070134 -31.653887 1.293074 7.204070 20.321651 0.000000 0.000000 0.000000 12.222173 -6.042347 -15.323180 -0.692219 -5.318797 14.820070 -6.692636 -24.302095 -59.439674 -4.319724 -12.574084 37.794453 -0.892849 0.407350 -17.662185 -1.972630 0.991383 0.211959 -1.380518 0.510495 10.200122 12.318270 17.651109 -16.608655 -18.885565 26.040478 19.590061 -3.964033 10.601843 13.755265 0.000000 0.000000 0.000000 101.756444 -27.825376 50.258249 131.918886 -52.191633 95.350161 20.039600 -39.316345 15.447878 0.000000 0.000000 0.000000 -7.125000 0.000000 0.000000 -5.108137 13.635645 -3.775339 0.000000 0.000000 0.000000 -95.590917 -11.180529 -46.637954 -143.666806 -45.740961 -104.239322 -22.400633 -21.854177 33.956017 0.000000 0.000000 0.000000 7.125000 0.000000 0.000000 13.519384 65.571524 -6.773831
-8.530277 1.497800 1.363779 42.057214 83.306013 142.103694 0.000000 0.000000 0.000000 -14.253214 15.509475 -30.179402 2.432618 9.714366 28.056637 -0.575693 25.084800 -31.749956 1.337221 7.322014 20.672977 0.000000 0.000000 0.000000 12.258794 -5.952360 -15.591340 -0.705116 -5.367117 14.958671 -6.797751 -24.169494 -59.659796 -4.286377 -12.531993 37.640962 -0.987077 0.405931 -17.794133 -1.947965 1.010588 0.140370 -1.293946 0.514995 10.193683 12.235311 17.576402 -16.542625 -18.759479 25.924521 19.612667 -3.944183 10.563027 13.691801 0.000000 0.000000 0.000000 101.587018 -28.010692 49.798162 132.081695 -52.120491 95.478699 21.384669 -37.780471 14.144530 0.000000 0.000000 0.000000 -7.125000 0.000000 0.000000 -4.132274 14.869619 -2.957408 0.000000 0.000000 0.000000 -95.649914 -11.034601 -46.616869 -143.651476 -45.751400 -104.228346 -22.397204 -21.877703 34.013749 0.000000 0.000000 0.000000 7.125000 0.000000 0.000000 13.575113 65.626665 -6.819431
-8.525421 1.505143 1.364836 39.723591 82.893826 140.061047 0.000000 0.000000 0.000000 -14.944595 15.494859 -30.593047 2.431818 9.712900 28.051974 -0.638189 25.147572 -31.432458 1.275474 7.156992 20.181464 0.000000 0.000000 0.000000 11.790441 -6.195438 -16.033185 -0.708455 -5.379546 14.994430 -6.762112 -24.104381 -59.524301 -4.297596 -12.546142 37.692520 -1.475424 0.289772 -18.028438 -2.122190 0.987774 0.072549 -1.211218 0.487069 10.246829 12.207827 17.548782 -16.542776 -18.599713 25.840302 19.611413 -3.905376 10.539809 13.638749 0.000000 0.000000 0.000000 101.378289 -27.984847 49.434668 132.337497 -52.008101 95.680487 22.189654 -36.769570 13.301615 0.000000 0.000000 0.000000 -7.125000 0.000000 0.000000 -3.545087 15.675019 -2.460222 0.000000 0.000000 0.000000 -95.470925 -11.163006 -46.543582 -143.692452 -45.723535 -104.257698 -22.437117 -21.739632 33.888197 0.000000 0.000000 0.000000 7.125000 0.000000 0.000000 13.415042 65.515784 -6.703554
